<svg xmlns="http://www.w3.org/2000/svg" xmlns:xlink="http://www.w3.org/1999/xlink" version="1.1" width="1000" height="1000" viewBox="0 0 1000 1000" xml:space="preserve">
<desc>Created with Fabric.js 3.5.0</desc>
<defs>
</defs>
<rect x="0" y="0" width="100%" height="100%" fill="#ffffff"/>
<g transform="matrix(-2.3916 0 0 2.3916 500.0044 500.002)" id="283665">
<path style="stroke: none; stroke-width: 1; stroke-dasharray: none; stroke-linecap: butt; stroke-dashoffset: 0; stroke-linejoin: miter; stroke-miterlimit: 4; is-custom-font: none; font-file-url: none; fill: rgb(255,255,255); fill-rule: nonzero; opacity: 1;" vector-effect="non-scaling-stroke" transform=" translate(-190.061, -190.0619)" d="M 379.632 148.271 c -0.612 -7.344 -10.403 -9.18 -13.464 -3.672 c -9.792 -6.12 -22.644 -10.404 -31.824 -15.3 c -15.3 -7.956 -31.823 -16.524 -48.96 -21.42 c -3.672 -5.508 -14.076 -3.672 -13.464 4.284 c 1.836 91.8 -115.668 89.964 -181.152 78.948 c 0 -7.344 0.612 -14.688 0.612 -21.42 c 0 -3.06 0 -6.12 0 -9.18 c 0 -1.836 -3.06 -7.344 -3.06 -4.896 c 0 -0.612 -0.612 -1.224 -0.612 -1.836 c -6.732 -18.972 -79.56 29.376 -86.904 41.616 c -1.224 2.448 -1.224 6.12 1.224 8.568 c 1.224 0.612 2.448 1.836 3.06 3.061 l 0 0 c -0.612 1.224 -0.612 2.447 -0.612 3.06 c 0.612 7.956 9.792 15.3 14.688 20.196 c 14.688 15.3 30.6 31.212 47.736 44.063 c 2.448 1.836 7.344 1.225 9.18 -1.224 c 0.612 -0.612 0.612 -1.225 1.224 -1.225 c 0.612 -0.611 0.612 -1.836 0.612 -3.06 c 0.612 -0.612 1.224 -1.836 1.836 -3.06 c 0.612 -7.345 0.612 -16.524 3.06 -23.257 c 0 -0.611 0.612 -1.224 0.612 -1.836 C 171.552 282.911 391.872 282.911 379.632 148.271 z M 81.588 226.606 c -0.612 0 -1.836 0 -2.448 0 c -9.792 0 -8.568 18.973 -7.344 29.988 c -9.792 -7.956 -18.972 -17.136 -28.152 -25.704 c -6.732 -6.12 -12.852 -12.239 -18.972 -18.972 c -1.836 -2.448 -4.284 -4.284 -6.12 -6.732 c -1.224 -1.224 -2.448 -2.447 -3.672 -3.06 c -1.224 -0.612 -1.836 -0.612 -1.836 -0.612 l -0.612 -0.611 c 4.896 -3.672 12.24 -9.793 13.464 -10.404 c 9.18 -6.121 18.36 -11.017 28.152 -15.913 c 3.672 -1.836 15.912 -5.508 25.092 -10.404 c 0 0.612 0 1.224 0 1.836 c -1.224 7.956 -2.448 15.912 -2.448 24.48 c 0 5.508 4.284 7.344 7.956 7.344 l 0 0 c 68.544 29.376 198.288 13.464 202.572 -77.724 c 13.464 6.732 26.316 13.464 39.78 20.808 c 9.792 5.508 26.316 17.748 39.168 18.972 C 358.824 279.239 156.252 249.251 81.588 226.606 z" stroke-linecap="round"/>
</g>
</svg>